<?xml version="1.0" encoding="UTF-8" standalone="no"?>
<!DOCTYPE svg PUBLIC "-//W3C//DTD SVG 1.1//EN"
 "http://www.w3.org/Graphics/SVG/1.1/DTD/svg11.dtd">
<!-- Generated by graphviz version 2.43.0 (0)
 -->
<!-- Title: G Pages: 1 -->
<svg width="213pt" height="372pt"
 viewBox="0.00 0.00 213.00 372.00" xmlns="http://www.w3.org/2000/svg" xmlns:xlink="http://www.w3.org/1999/xlink">
<g id="graph0" class="graph" transform="scale(1 1) rotate(0) translate(4 368)">
<title>G</title>
<polygon fill="white" stroke="transparent" points="-4,4 -4,-368 209,-368 209,4 -4,4"/>
<!-- bdd -->
<g id="node1" class="node">
<title>bdd</title>
<polygon fill="none" stroke="black" points="185.5,-364 19.5,-364 19.5,-320 185.5,-320 185.5,-364"/>
<text text-anchor="middle" x="102.5" y="-337" font-family="Helvetica,Arial,sans-serif" font-size="20.00">Database</text>
</g>
<!-- pers -->
<g id="node2" class="node">
<title>pers</title>
<polygon fill="none" stroke="black" points="194.5,-284 10.5,-284 10.5,-240 194.5,-240 194.5,-284"/>
<text text-anchor="middle" x="102.5" y="-257" font-family="Helvetica,Arial,sans-serif" font-size="20.00">Persistance</text>
</g>
<!-- bdd&#45;&gt;pers -->
<g id="edge1" class="edge">
<title>bdd&#45;&gt;pers</title>
<path fill="none" stroke="black" d="M102.5,-309.57C102.5,-304.47 102.5,-299.19 102.5,-294.09"/>
<polygon fill="black" stroke="black" points="99,-309.69 102.5,-319.69 106,-309.69 99,-309.69"/>
<polygon fill="black" stroke="black" points="106,-294.02 102.5,-284.02 99,-294.02 106,-294.02"/>
</g>
<!-- access -->
<g id="node3" class="node">
<title>access</title>
<polygon fill="none" stroke="black" points="197.5,-204 7.5,-204 7.5,-160 197.5,-160 197.5,-204"/>
<text text-anchor="middle" x="102.5" y="-177" font-family="Helvetica,Arial,sans-serif" font-size="20.00">Data access</text>
</g>
<!-- pers&#45;&gt;access -->
<g id="edge2" class="edge">
<title>pers&#45;&gt;access</title>
<path fill="none" stroke="black" d="M102.5,-229.57C102.5,-224.47 102.5,-219.19 102.5,-214.09"/>
<polygon fill="black" stroke="black" points="99,-229.69 102.5,-239.69 106,-229.69 99,-229.69"/>
<polygon fill="black" stroke="black" points="106,-214.02 102.5,-204.02 99,-214.02 106,-214.02"/>
</g>
<!-- serv -->
<g id="node4" class="node">
<title>serv</title>
<polygon fill="none" stroke="black" points="181.5,-124 23.5,-124 23.5,-80 181.5,-80 181.5,-124"/>
<text text-anchor="middle" x="102.5" y="-97" font-family="Helvetica,Arial,sans-serif" font-size="20.00">Services</text>
</g>
<!-- access&#45;&gt;serv -->
<g id="edge3" class="edge">
<title>access&#45;&gt;serv</title>
<path fill="none" stroke="black" d="M102.5,-149.57C102.5,-144.47 102.5,-139.19 102.5,-134.09"/>
<polygon fill="black" stroke="black" points="99,-149.69 102.5,-159.69 106,-149.69 99,-149.69"/>
<polygon fill="black" stroke="black" points="106,-134.02 102.5,-124.02 99,-134.02 106,-134.02"/>
</g>
<!-- ui -->
<g id="node5" class="node">
<title>ui</title>
<polygon fill="none" stroke="black" points="205,-44 0,-44 0,0 205,0 205,-44"/>
<text text-anchor="middle" x="102.5" y="-17" font-family="Helvetica,Arial,sans-serif" font-size="20.00">User interface</text>
</g>
<!-- serv&#45;&gt;ui -->
<g id="edge4" class="edge">
<title>serv&#45;&gt;ui</title>
<path fill="none" stroke="black" d="M102.5,-69.57C102.5,-64.47 102.5,-59.19 102.5,-54.09"/>
<polygon fill="black" stroke="black" points="99,-69.69 102.5,-79.69 106,-69.69 99,-69.69"/>
<polygon fill="black" stroke="black" points="106,-54.02 102.5,-44.02 99,-54.02 106,-54.02"/>
</g>
</g>
</svg>
